<?xml version="1.0" encoding="utf-8"?>
<!-- Generator: Adobe Illustrator 23.0.5, SVG Export Plug-In . SVG Version: 6.00 Build 0)  -->
<svg version="1.1" id="Layer_1" xmlns="http://www.w3.org/2000/svg" xmlns:xlink="http://www.w3.org/1999/xlink" x="0px" y="0px"
	 viewBox="0 0 64 64" style="enable-background:new 0 0 64 64;" xml:space="preserve">
<style type="text/css">
	.st0{fill:#FFFFFF;}
</style>
<g>
	<path class="st0" d="M13,1.5c1.7,0.4,3.2,1.4,4.6,2.2c9.3,5.4,18.6,10.7,27.9,16.1c0.2,0.1,0.4,0.2,0.6,0.4
		c-0.1,0.1-0.2,0.2-0.2,0.3c-2.7,2.8-5.5,5.7-8.2,8.5c-0.3,0.3-0.4,0.3-0.7,0c-8.6-9-17.2-17.9-25.8-26.9C11,2,10.9,1.9,10.9,1.8
		c0.2-0.3,0.5-0.1,0.7-0.3C12,1.5,12.5,1.5,13,1.5z"/>
	<path class="st0" d="M6.6,32.2c0-8.1,0-16.2,0-24.4c0-1.3,0.2-2.4,0.8-3.5c0.2-0.4,0.4-0.4,0.7-0.1c8.3,8.7,16.6,17.4,25,26.1
		c0.4,0.5,0.9,0.9,1.3,1.4c0.3,0.3,0.3,0.5,0,0.8c-4.6,4.8-9.2,9.6-13.8,14.4c-4.2,4.4-8.4,8.7-12.6,13.1c-0.5,0.5-0.5,0.5-0.8-0.1
		c-0.5-0.9-0.6-2-0.6-3C6.6,48.6,6.6,40.4,6.6,32.2z"/>
	<path class="st0" d="M10.5,62.5c0.8-0.9,1.6-1.7,2.3-2.4c8-8.4,16-16.7,24-25.1c0.3-0.4,0.5-0.4,0.9,0c2.8,2.9,5.5,5.8,8.3,8.7
		c0.1,0.1,0.2,0.2,0.3,0.3c-0.2,0.1-0.4,0.2-0.5,0.3c-10.1,5.8-20.3,11.7-30.4,17.5C13.9,62.8,12.3,63.1,10.5,62.5z"/>
	<path class="st0" d="M61.2,32.6c0,1.6-0.8,3.3-2.5,4.3c-2.9,1.8-5.9,3.4-8.8,5.1c-0.2,0.1-0.4,0.1-0.6-0.1
		c-3.1-3.2-6.2-6.4-9.3-9.7c-0.2-0.2-0.2-0.4,0-0.6c3-3.1,6-6.2,9-9.4c0.2-0.2,0.4-0.2,0.7-0.1c2.9,1.7,5.8,3.3,8.6,5
		C60.2,28.4,61.2,30.1,61.2,32.6z"/>
</g>
</svg>
